<svg xmlns="http://www.w3.org/2000/svg" width="25" height="17">
    <path data-name="Icon awesome-users" d="M3.75 9.964a2.572 2.572 0 0 0 0-5.143 2.572 2.572 0 0 0 0 5.143zm17.5 0a2.572 2.572 0 1 0-2.5-2.571 2.539 2.539 0 0 0 2.5 2.571zm1.25 1.286H20a2.458 2.458 0 0 0-1.762.75 5.879 5.879 0 0 1 2.934 4.4h2.578A1.267 1.267 0 0 0 25 15.107v-1.286a2.539 2.539 0 0 0-2.5-2.571zm-10 0a4.437 4.437 0 0 0 4.375-4.5 4.377 4.377 0 1 0-8.75 0 4.437 4.437 0 0 0 4.375 4.5zm3 1.286h-.324a5.89 5.89 0 0 1-5.352 0H9.5A4.567 4.567 0 0 0 5 17.164v1.157a1.9 1.9 0 0 0 1.875 1.929h11.25A1.9 1.9 0 0 0 20 18.321v-1.157a4.567 4.567 0 0 0-4.5-4.628zM6.762 12A2.458 2.458 0 0 0 5 11.25H2.5A2.539 2.539 0 0 0 0 13.821v1.286a1.267 1.267 0 0 0 1.25 1.286h2.574A5.894 5.894 0 0 1 6.762 12z" transform="translate(0 -2.25)" style="fill:#44546a"/>
</svg>
